HIERARCHY
ROOT Hips
{
	OFFSET 0.00 0.00 0.00
	CHANNELS 6 Xposition Yposition Zposition Xrotation Yrotation Zrotation
	JOINT Spine
	{
		OFFSET 0.00000 7.50895 0.00000
		CHANNELS 3 Xrotation Yrotation Zrotation
		JOINT Head
		{
			OFFSET 0.00000 13.86115 0.00000
			CHANNELS 3 Xrotation Yrotation Zrotation
			End Site
			{
				OFFSET 0.00000 4.52755 0.00000
			}
		}
		JOINT LeftShoulder
		{
			OFFSET 0.00000 8.20478 0.00000
			CHANNELS 3 Xrotation Yrotation Zrotation
			JOINT LeftArm
			{
				OFFSET 6.63596 0.00000 0.00000
				CHANNELS 3 Xrotation Yrotation Zrotation
				JOINT LeftForeArm
				{
					OFFSET 10.27422 0.00000 0.00000
					CHANNELS 3 Yrotation Zrotation Xrotation
					JOINT LeftHand
					{
						OFFSET 8.52215 0.00000 0.00000
						CHANNELS 3 Xrotation Yrotation Zrotation
						JOINT LeftHandThumb1
						{
							OFFSET 0.00000 0.00000 0.00000
							CHANNELS 3 Xrotation Zrotation Yrotation
							End Site
							{
								OFFSET 0.00000 0.00000 3.93700
							}
						}
						End Site
						{
							OFFSET 3.93700 0.00000 0.00000
						}
					}
				}
			}
		}
		JOINT RightShoulder
		{
			OFFSET 0.00000 8.20478 0.00000
			CHANNELS 3 Xrotation Yrotation Zrotation
			JOINT RightArm
			{
				OFFSET -6.63596 0.00000 0.00000
				CHANNELS 3 Xrotation Yrotation Zrotation
				JOINT RightForeArm
				{
					OFFSET -10.27422 0.00000 0.00000
					CHANNELS 3 Yrotation Zrotation Xrotation
					JOINT RightHand
					{
						OFFSET -8.52215 0.00000 0.00000
						CHANNELS 3 Xrotation Yrotation Zrotation
						JOINT RightHandThumb1
						{
							OFFSET 0.00000 0.00000 0.00000
							CHANNELS 3 Xrotation Zrotation Yrotation
							End Site
							{
								OFFSET 0.00000 0.00000 3.93700
							}
						}
						End Site
						{
							OFFSET -3.93700 0.00000 0.00000
						}
					}
				}
			}
		}
	}
	JOINT LeftUpLeg
	{
		OFFSET 3.00056 0.00000 0.00000
		CHANNELS 3 Xrotation Yrotation Zrotation
		JOINT LeftLeg
		{
			OFFSET 0.00000 -16.49085 0.00000
			CHANNELS 3 Xrotation Yrotation Zrotation
			JOINT LeftFoot
			{
				OFFSET 0.00000 -14.55658 0.00000
				CHANNELS 3 Xrotation Yrotation Zrotation
				JOINT LeftToeBase
				{
					OFFSET 0.00000 -1.25038 4.66650
					CHANNELS 3 Xrotation Yrotation Zrotation
					End Site
					{
						OFFSET 0.00000 0.00000 2.95275
					}
				}
			}
		}
	}
	JOINT RightUpLeg
	{
		OFFSET -3.00056 0.00000 0.00000
		CHANNELS 3 Xrotation Yrotation Zrotation
		JOINT RightLeg
		{
			OFFSET 0.00000 -16.49085 0.00000
			CHANNELS 3 Xrotation Yrotation Zrotation
			JOINT RightFoot
			{
				OFFSET 0.00000 -14.55658 0.00000
				CHANNELS 3 Xrotation Yrotation Zrotation
				JOINT RightToeBase
				{
					OFFSET 0.00000 -1.25038 4.66650
					CHANNELS 3 Xrotation Yrotation Zrotation
					End Site
					{
						OFFSET 0.00000 0.00000 2.95275
					}
				}
			}
		}
	}
}
MOTION
Frames: 11
Frame Time: 0.008333
 -5.5800 32.8812 -1.8769 12.0911 4.1594 -0.0678 -13.0817 1.8242 2.3713 -6.3641 -4.6953 7.3057 8.6094 21.3562 27.3408 -31.9734 -1.9238 -29.0086 -16.7235 -0.0000 5.4349 0.1260 23.7738 -0.3125 33.1476 -0.0000 26.2537 -23.0866 -8.1644 -40.1990 2.8320 -7.9471 29.0046 18.0821 -0.0000 32.4739 2.3850 -11.8857 11.4325 32.8623 0.0000 -24.3270 -6.9979 6.2341 -1.7391 -1.1695 0.0000 0.0000 -7.7954 7.6847 -15.5895 7.6200 -0.0000 -0.0000 -6.8994 -4.9763 1.0104 2.5405 -0.0000 -0.0000 -11.0929 -6.6138 -8.2699 -0.2481 0.0000 -0.0000
 -5.5826 32.8802 -1.8812 12.0880 4.1913 -0.0843 -13.0330 1.8221 2.3675 -6.4632 -4.6336 7.3178 8.6964 21.2630 27.1491 -32.6167 -1.0115 -29.1138 -17.7596 -0.0000 3.6441 -0.2962 23.4126 0.7453 33.1476 -0.0000 26.2537 -23.0111 -8.3046 -40.0868 3.0778 -7.9304 29.2664 18.5915 -0.0000 32.5944 2.2946 -11.8918 11.0040 32.8623 0.0000 -24.3270 -7.0139 6.2284 -1.7201 -1.1541 0.0000 0.0000 -7.7601 7.6985 -15.6939 7.4536 0.0000 0.0000 -6.9173 -5.0162 1.0298 2.5761 -0.0000 -0.0000 -11.1123 -6.6161 -8.3050 -0.2425 0.0000 -0.0000
 -5.5823 32.8807 -1.8898 12.1251 4.2074 -0.0853 -13.0323 1.8421 2.3450 -6.5491 -4.5380 7.3256 8.7473 21.1233 26.8997 -33.1876 -0.1948 -29.1285 -18.7211 -0.0000 1.7179 -0.7068 23.3599 1.7820 33.1476 -0.0000 26.2537 -22.9036 -8.4800 -39.9654 3.2389 -7.9019 29.5777 19.1115 -0.0000 32.8587 2.2954 -11.9453 10.9601 32.8623 0.0000 -24.3270 -7.0753 6.2247 -1.7277 -1.1335 0.0000 -0.0000 -7.7515 7.6981 -15.6924 7.4727 -0.0000 0.0000 -6.9865 -5.0061 1.0258 2.6139 -0.0000 -0.0000 -11.1281 -6.6573 -8.3053 -0.2214 0.0000 -0.0000
 -5.5845 32.8801 -1.8954 12.1413 4.2255 -0.0894 -13.0096 1.8574 2.3341 -6.6403 -4.4442 7.3008 8.7793 20.9436 26.6691 -33.9534 0.8895 -29.1785 -19.8029 -0.0000 -0.2535 -0.8794 22.8243 2.2660 33.1476 -0.0000 26.2537 -22.8303 -8.6330 -39.7955 3.6206 -7.7869 29.8249 19.6216 -0.0000 32.8202 2.1918 -11.8003 10.6002 32.8623 0.0000 -24.3270 -7.1059 6.2293 -1.7248 -1.1285 0.0000 -0.0000 -7.7533 7.6885 -15.6894 7.5111 0.0000 0.0000 -7.0234 -5.0101 1.0287 2.6387 -0.0000 0.0000 -11.1374 -6.6724 -8.3139 -0.2586 0.0000 -0.0000
 -5.5861 32.8797 -1.9032 12.1706 4.2580 -0.1027 -13.0076 1.8534 2.3281 -6.7086 -4.3504 7.3215 8.8433 20.7862 26.4136 -34.8695 2.0373 -29.2815 -20.8825 -0.0000 -1.8939 -1.1139 22.1427 2.9531 33.1476 -0.0000 26.2537 -22.7629 -8.7723 -39.6256 3.9626 -7.6856 30.1236 20.1475 -0.0000 32.9280 2.1530 -11.7132 10.4916 32.8623 0.0000 -24.3270 -7.1559 6.2286 -1.7173 -1.1221 0.0000 0.0000 -7.7571 7.6813 -15.6952 7.4714 0.0000 -0.0000 -7.0836 -5.0370 1.0417 2.6833 0.0000 -0.0000 -11.1657 -6.6954 -8.3598 -0.1952 0.0000 0.0000
 -5.5881 32.8798 -1.9102 12.1843 4.2914 -0.1179 -12.9935 1.8667 2.3036 -6.7496 -4.2751 7.4104 8.9148 20.6201 26.1247 -35.7050 3.0278 -29.3220 -21.8585 -0.0000 -3.5908 -1.0058 21.4518 2.7484 33.1476 -0.0000 26.2537 -22.6847 -8.9240 -39.4294 4.3160 -7.5891 30.4516 20.6908 -0.0000 33.1226 2.1763 -11.8325 10.4992 32.8623 0.0000 -24.3270 -7.1904 6.2306 -1.7088 -1.1135 0.0000 0.0000 -7.8127 7.6222 -15.6046 7.6547 -0.0000 0.0000 -7.1162 -5.0547 1.0553 2.7032 0.0000 0.0000 -11.1639 -6.7101 -8.3836 -0.2024 0.0000 -0.0000
 -5.5953 32.8786 -1.9195 12.2156 4.3299 -0.1574 -12.9936 1.8722 2.2954 -6.7988 -4.1995 7.5003 8.9118 20.4108 25.9326 -36.4614 4.1356 -29.4829 -22.9608 -0.0000 -5.6047 -1.4281 21.3180 3.9231 33.1476 -0.0000 26.2537 -22.5983 -9.0458 -39.2076 4.7221 -7.5841 30.7931 21.3715 -0.0000 33.4466 2.2264 -11.9283 10.6529 32.8623 0.0000 -24.3270 -7.2552 6.2349 -1.6625 -1.0957 0.0000 0.0000 -7.7750 7.6141 -15.7393 7.4988 0.0000 -0.0000 -7.0395 -4.7843 1.1013 2.4475 -0.0000 0.0000 -11.0408 -6.9784 -8.3107 -0.2163 0.0000 0.0000
 -5.5983 32.8778 -1.9279 12.2480 4.3762 -0.1763 -13.0039 1.8778 2.2738 -6.8176 -4.1206 7.5575 8.9309 20.2211 25.6735 -37.2392 5.1354 -29.6140 -23.9548 -0.0000 -7.4892 -1.6499 20.9423 4.6073 33.1476 -0.0000 26.2537 -22.4820 -9.2028 -39.0394 5.1044 -7.5152 31.2286 21.9276 -0.0000 33.7029 2.2212 -11.9262 10.6303 32.8623 0.0000 -24.3270 -7.3093 6.2255 -1.6491 -1.0930 0.0000 0.0000 -7.7780 7.5933 -15.7631 7.5377 -0.0000 0.0000 -7.0635 -4.7467 1.1156 2.4084 0.0000 0.0000 -11.0298 -7.0479 -8.2951 -0.1860 0.0000 -0.0000
 -5.6012 32.8785 -1.9363 12.2642 4.4107 -0.2051 -13.0095 1.9109 2.2703 -6.7962 -4.0740 7.6174 9.0112 20.0107 25.3738 -38.0714 6.1576 -29.7247 -25.0745 -0.0000 -9.2988 -1.8316 20.8377 5.1368 33.1476 -0.0000 26.2537 -22.3833 -9.4071 -38.7431 5.5510 -7.2423 31.4946 22.3190 -0.0000 33.7457 2.0721 -11.5396 10.2520 32.8623 0.0000 -24.3270 -7.3453 6.2229 -1.6245 -1.0954 -0.0000 0.0000 -7.7732 7.5732 -15.7569 7.5524 -0.0000 0.0000 -7.1527 -4.9015 1.1404 2.5456 0.0000 -0.0000 -11.0720 -6.9426 -8.3053 -0.1865 -0.0000 -0.0000
 -5.5981 32.8778 -1.9453 12.3014 4.4488 -0.1950 -13.0426 1.9389 2.2307 -6.7666 -4.0222 7.6791 9.0121 19.7895 25.1542 -38.7345 7.1407 -29.9078 -26.1180 -0.0000 -11.1552 -2.0696 20.7379 5.8271 33.1476 -0.0000 26.2537 -22.2984 -9.5168 -38.5600 6.1086 -7.0848 31.9357 22.8158 -0.0000 33.6645 2.0929 -11.7461 10.1767 32.8623 0.0000 -24.3270 -7.3981 6.2346 -1.6555 -1.0934 0.0000 0.0000 -7.7583 7.5537 -15.7286 7.5556 -0.0000 -0.0000 -7.3105 -5.1417 1.1164 2.7781 -0.0000 0.0000 -11.1990 -6.7860 -8.4093 -0.1214 0.0000 0.0000
 -5.6033 32.8780 -1.9536 12.3443 4.4967 -0.2399 -13.0873 1.9481 2.2336 -6.7394 -3.9710 7.7419 9.0835 19.6291 24.8833 -39.5090 8.0478 -30.0907 -27.1202 -0.0000 -12.9387 -2.3213 20.7723 6.5205 33.1476 -0.0000 26.2537 -22.1965 -9.6328 -38.4023 6.4451 -7.0394 32.4679 23.2550 -0.0000 33.6742 2.1491 -11.8496 10.3563 32.8623 0.0000 -24.3270 -7.4570 6.2304 -1.6141 -1.1109 -0.0000 -0.0000 -7.7448 7.5171 -15.7436 7.5271 0.0000 -0.0000 -7.3370 -5.1266 1.1621 2.7283 0.0000 -0.0000 -11.1476 -6.8471 -8.4163 -0.1692 -0.0000 0.0000
